<svg width="388" height="147" viewBox="0 0 388 147" fill="none" xmlns="http://www.w3.org/2000/svg">
<circle cx="73.5" cy="73.5" r="64.5" stroke="#114F5F" stroke-width="18"/>
<circle cx="73.5" cy="73.5" r="46.5" fill="#76B8C3"/>
<circle cx="92.5" cy="51.5" r="8.5" stroke="#114F5F" stroke-width="6"/>
<circle cx="92.5" cy="96.5" r="8.5" stroke="#114F5F" stroke-width="6"/>
<circle cx="49.5" cy="73.5" r="8.5" stroke="#114F5F" stroke-width="6"/>
<line x1="58.3156" y1="69.372" x2="86.3156" y2="56.372" stroke="#114F5F" stroke-width="8"/>
<line y1="-4" x2="30.8707" y2="-4" transform="matrix(-0.907009 -0.421111 -0.421111 0.907009 83 95)" stroke="#114F5F" stroke-width="8"/>
<path d="M189.377 93L176.292 75.6392H173.349V93H164.738V52.2727H173.349V68.5398H175.079L188.602 52.2727H199.321L183.431 71.1648L200.056 93H189.377ZM200.467 52.2727H209.058V77.8864H209.396L226.995 52.2727H234.532V93H225.921V67.3665H225.623L207.924 93H200.467V52.2727ZM244.746 93H235.519L249.579 52.2727H260.675L274.715 93H265.488L255.286 61.5795H254.968L244.746 93ZM244.17 76.9915H265.965V83.7131H244.17V76.9915ZM309.718 66.5312H301.007C300.848 65.4044 300.523 64.4034 300.033 63.5284C299.542 62.6401 298.913 61.8845 298.144 61.2614C297.375 60.6383 296.486 60.161 295.479 59.8295C294.485 59.4981 293.404 59.3324 292.237 59.3324C290.129 59.3324 288.293 59.8561 286.729 60.9034C285.165 61.9375 283.951 63.4489 283.09 65.4375C282.228 67.4129 281.797 69.8125 281.797 72.6364C281.797 75.5398 282.228 77.9792 283.09 79.9545C283.965 81.9299 285.184 83.4214 286.749 84.429C288.313 85.4366 290.123 85.9403 292.178 85.9403C293.331 85.9403 294.398 85.7879 295.379 85.483C296.374 85.178 297.255 84.7339 298.024 84.1506C298.793 83.554 299.43 82.8314 299.933 81.983C300.451 81.1345 300.808 80.1667 301.007 79.0795L309.718 79.1193C309.492 80.9886 308.929 82.7917 308.027 84.5284C307.139 86.2519 305.939 87.7964 304.428 89.1619C302.93 90.5142 301.14 91.5881 299.058 92.3835C296.99 93.1657 294.65 93.5568 292.039 93.5568C288.406 93.5568 285.158 92.7348 282.294 91.0909C279.444 89.447 277.19 87.0672 275.533 83.9517C273.889 80.8362 273.067 77.0644 273.067 72.6364C273.067 68.1951 273.902 64.4167 275.573 61.3011C277.243 58.1856 279.51 55.8125 282.374 54.1818C285.237 52.5379 288.459 51.7159 292.039 51.7159C294.398 51.7159 296.586 52.0473 298.601 52.7102C300.629 53.3731 302.426 54.3409 303.99 55.6136C305.555 56.8731 306.827 58.4176 307.808 60.2472C308.803 62.0767 309.439 64.1714 309.718 66.5312ZM311.972 52.2727H320.563V77.8864H320.901L338.501 52.2727H346.038V93H337.427V67.3665H337.129L319.43 93H311.972V52.2727ZM385.167 66.5312H376.456C376.297 65.4044 375.972 64.4034 375.482 63.5284C374.991 62.6401 374.362 61.8845 373.593 61.2614C372.824 60.6383 371.936 60.161 370.928 59.8295C369.934 59.4981 368.853 59.3324 367.687 59.3324C365.579 59.3324 363.742 59.8561 362.178 60.9034C360.614 61.9375 359.401 63.4489 358.539 65.4375C357.677 67.4129 357.246 69.8125 357.246 72.6364C357.246 75.5398 357.677 77.9792 358.539 79.9545C359.414 81.9299 360.633 83.4214 362.198 84.429C363.762 85.4366 365.572 85.9403 367.627 85.9403C368.78 85.9403 369.847 85.7879 370.829 85.483C371.823 85.178 372.704 84.7339 373.473 84.1506C374.242 83.554 374.879 82.8314 375.383 81.983C375.9 81.1345 376.258 80.1667 376.456 79.0795L385.167 79.1193C384.941 80.9886 384.378 82.7917 383.476 84.5284C382.588 86.2519 381.388 87.7964 379.877 89.1619C378.379 90.5142 376.589 91.5881 374.508 92.3835C372.439 93.1657 370.099 93.5568 367.488 93.5568C363.855 93.5568 360.607 92.7348 357.743 91.0909C354.893 89.447 352.639 87.0672 350.982 83.9517C349.338 80.8362 348.516 77.0644 348.516 72.6364C348.516 68.1951 349.351 64.4167 351.022 61.3011C352.692 58.1856 354.959 55.8125 357.823 54.1818C360.687 52.5379 363.908 51.7159 367.488 51.7159C369.847 51.7159 372.035 52.0473 374.05 52.7102C376.079 53.3731 377.875 54.3409 379.439 55.6136C381.004 56.8731 382.276 58.4176 383.258 60.2472C384.252 62.0767 384.888 64.1714 385.167 66.5312Z" fill="#114F5F"/>
</svg>
